<?xml version="1.0" encoding="UTF-8" standalone="no"?>
<svg
   xmlns:osb="http://www.openswatchbook.org/uri/2009/osb"
   xmlns:dc="http://purl.org/dc/elements/1.1/"
   xmlns:cc="http://creativecommons.org/ns#"
   xmlns:rdf="http://www.w3.org/1999/02/22-rdf-syntax-ns#"
   xmlns:svg="http://www.w3.org/2000/svg"
   xmlns="http://www.w3.org/2000/svg"
   version="1.1"
   id="svg2"
   viewBox="0 0 30.000001 32.64187"
   height="34.817993"
   width="32">
  <defs
     id="defs4">
    <linearGradient
       osb:paint="solid"
       id="linearGradient4192">
      <stop
         id="stop4194"
         offset="0"
         style="stop-color:#ffffff;stop-opacity:1;" />
    </linearGradient>
  </defs>
  <metadata
     id="metadata7">
    <rdf:RDF>
      <cc:Work
         rdf:about="">
        <dc:format>image/svg+xml</dc:format>
        <dc:type
           rdf:resource="http://purl.org/dc/dcmitype/StillImage" />
        <dc:title></dc:title>
      </cc:Work>
    </rdf:RDF>
  </metadata>
  <g
     transform="translate(-284.50557,-725.10251)"
     id="layer1">
    <path
       id="path4684"
       d="m 299.65721,725.10251 c 0,0 -3.82049,4.85104 -5.9285,6.15117 -1.21499,0.74936 -6.15302,-1.88076 -6.86898,-1.40082 -1.27121,0.85216 0.95588,6.25313 0.0643,7.47911 -1.44708,1.98993 -2.41846,4.24859 -2.41846,6.67553 0,8.26842 7.33277,13.73688 15.18936,13.73688 7.85659,0 14.81064,-5.239 14.81064,-13.50743 0,-2.63827 -1.2355,-5.17054 -2.98165,-7.37843 -0.71559,-0.90481 1.75995,-6.0828 0.60149,-7.36389 -0.63811,-0.70566 -5.76173,2.48102 -7.09403,1.6449 -2.12872,-1.33592 -5.37422,-6.03702 -5.37422,-6.03702 z m -12.10551,5.84003 c 0.50065,-0.45703 4.03578,1.67125 4.03578,1.67125 -1.47435,0.7156 -2.32977,1.59603 -3.16454,2.76165 0,0 -1.43878,-3.98282 -0.87124,-4.4329 z m 23.25664,0.10481 c 0.18477,0.39403 0.16011,2.59072 -0.84812,4.28216 -1.09677,-1.20353 -2.03211,-1.97545 -3.14328,-2.81083 1.18239,-0.31391 3.58661,-1.75484 3.9914,-1.47133 z m -6.34996,10.68002 c 1.12629,0 2.03932,0.91304 2.03932,2.03932 0,1.12629 -0.85289,-0.88684 -1.97917,-0.88684 -1.12629,0 -2.09947,2.01313 -2.09947,0.88684 0,-1.12628 0.91303,-2.03932 2.03932,-2.03932 z m -10.43932,0.53996 c 0.76809,-2e-5 1.78887,0.59422 1.78886,1.3623 10e-6,0.76809 -1.04082,-0.30444 -1.80891,-0.30445 -0.76805,-5e-5 -1.79715,1.12936 -1.79714,0.36131 -10e-6,-0.76804 1.04914,-1.41912 1.81719,-1.41916 z m 17.1123,3.42677 0.0402,0.63978 -4.99074,0.88483 -0.0402,-0.88112 z m -23.15357,0.3872 5.02787,0.64349 -0.0405,0.88112 -5.02786,-0.88483 z m 23.86178,2.31163 0.0402,0.51917 -5.07125,0.44236 0.0403,-0.88101 z m -12.14597,0.27539 c 1.00412,0 1.99921,0.2051 1.99922,0.9296 -10e-6,0.58484 -0.73759,1.09735 -1.4703,1.26662 -0.0555,0.0128 0.01,0.19422 -0.0298,1.45852 -0.0102,0.32477 0.41947,1.02367 1.58487,1.09901 1.19914,0.0775 1.03248,-1.04644 1.13741,-1.06316 0.4057,-0.0646 0.32195,0.015 0.76475,-0.0178 0.31347,-0.0232 0.0463,1.98742 -1.90354,1.99498 -1.8037,0.007 -1.99974,-0.90573 -2.09926,-0.90573 -0.10125,0 -0.44214,0.94442 -2.03348,0.90923 -2.34571,-0.0519 -2.16742,-2.01152 -2.02925,-2.01216 0.28794,-0.001 0.25657,-0.0156 0.79519,0.0238 0.32744,-0.0679 -0.31519,1.18223 1.2295,1.13041 1.35399,-0.0454 1.52621,-0.69185 1.52206,-1.17624 -0.0106,-1.24357 0.0771,-1.39887 -0.0144,-1.42054 -0.72634,-0.17195 -1.39168,-0.70531 -1.39169,-1.28688 10e-6,-0.7245 0.93463,-0.9296 1.93876,-0.9296 z m -12.42921,0.11181 5.02786,0.0805 0.0405,0.88101 -5.10891,-0.44247 z m 18.69961,2.14668 4.99063,0.0402 0.12072,0.55937 -5.19186,0.16082 z m -12.78023,0.38719 0.0809,0.7604 -5.23048,-0.16093 0.12157,-0.55926 z"
       style="fill:#1da1f2;fill-opacity:1;stroke:none;stroke-width:0.054314;stroke-miterlimit:4;stroke-dasharray:none;stroke-opacity:1" />
    <path
       id="path4770"
       d="m 283.10643,885.51895 v 0 0"
       style="fill:none;fill-rule:evenodd;stroke:#000000;stroke-width:0.9375px;stroke-linecap:butt;stroke-linejoin:miter;stroke-opacity:1" />
  </g>
</svg>
